<svg width="40" height="40" viewBox="0 0 40 40" fill="none" xmlns="http://www.w3.org/2000/svg">
<rect x="1" y="1" width="38" height="38" rx="5" fill="#090909"/>
<path d="M11.8963 31V9.18182H20.6321C22.2372 9.18182 23.576 9.41974 24.6484 9.8956C25.7209 10.3714 26.527 11.032 27.0668 11.8771C27.6065 12.7152 27.8764 13.6811 27.8764 14.7749C27.8764 15.6271 27.706 16.3764 27.3651 17.0227C27.0241 17.6619 26.5554 18.1875 25.9588 18.5994C25.3693 19.0043 24.6946 19.2919 23.9347 19.4624V19.6754C24.7656 19.7109 25.5433 19.9453 26.2678 20.3786C26.9993 20.8118 27.5923 21.419 28.0469 22.2003C28.5014 22.9744 28.7287 23.8977 28.7287 24.9702C28.7287 26.1278 28.4411 27.1612 27.8658 28.0703C27.2976 28.9723 26.456 29.6861 25.3409 30.2116C24.2259 30.7372 22.8516 31 21.218 31H11.8963ZM16.5092 27.2287H20.2699C21.5554 27.2287 22.4929 26.9837 23.0824 26.4936C23.6719 25.9964 23.9666 25.3359 23.9666 24.5121C23.9666 23.9084 23.821 23.3757 23.5298 22.9141C23.2386 22.4524 22.8232 22.0902 22.2834 21.8274C21.7507 21.5646 21.1151 21.4332 20.3764 21.4332H16.5092V27.2287ZM16.5092 18.3118H19.929C20.5611 18.3118 21.1222 18.2017 21.6122 17.9815C22.1094 17.7543 22.5 17.4347 22.7841 17.0227C23.0753 16.6108 23.2209 16.1172 23.2209 15.5419C23.2209 14.7536 22.9403 14.1179 22.3793 13.6349C21.8253 13.152 21.0369 12.9105 20.0142 12.9105H16.5092V18.3118Z" fill="white"/>
<rect x="1" y="1" width="38" height="38" rx="5" stroke="white" stroke-width="2"/>
</svg>
