<svg width="82" height="40" viewBox="0 0 82 40" fill="none" xmlns="http://www.w3.org/2000/svg">
<rect x="1" y="1" width="80" height="38" rx="5" fill="#090909"/>
<path d="M11.0114 25.5V13.8636H15.6705C16.5265 13.8636 17.2405 13.9905 17.8125 14.2443C18.3845 14.4981 18.8144 14.8504 19.1023 15.3011C19.3902 15.7481 19.5341 16.2633 19.5341 16.8466C19.5341 17.3011 19.4432 17.7008 19.2614 18.0455C19.0795 18.3864 18.8295 18.6667 18.5114 18.8864C18.197 19.1023 17.8371 19.2557 17.4318 19.3466V19.4602C17.875 19.4792 18.2898 19.6042 18.6761 19.8352C19.0663 20.0663 19.3826 20.3902 19.625 20.8068C19.8674 21.2197 19.9886 21.7121 19.9886 22.2841C19.9886 22.9015 19.8352 23.4527 19.5284 23.9375C19.2254 24.4186 18.7765 24.7992 18.1818 25.0795C17.5871 25.3598 16.8542 25.5 15.983 25.5H11.0114ZM13.4716 23.4886H15.4773C16.1629 23.4886 16.6629 23.358 16.9773 23.0966C17.2917 22.8314 17.4489 22.4792 17.4489 22.0398C17.4489 21.7178 17.3712 21.4337 17.2159 21.1875C17.0606 20.9413 16.839 20.7481 16.5511 20.608C16.267 20.4678 15.928 20.3977 15.5341 20.3977H13.4716V23.4886ZM13.4716 18.733H15.2955C15.6326 18.733 15.9318 18.6742 16.1932 18.5568C16.4583 18.4356 16.6667 18.2652 16.8182 18.0455C16.9735 17.8258 17.0511 17.5625 17.0511 17.2557C17.0511 16.8352 16.9015 16.4962 16.6023 16.2386C16.3068 15.9811 15.8864 15.8523 15.3409 15.8523H13.4716V18.733ZM23.9645 13.8636V25.5H21.544V13.8636H23.9645ZM29.8466 25.6705C28.964 25.6705 28.2008 25.483 27.5568 25.108C26.9167 24.7292 26.4223 24.2027 26.0739 23.5284C25.7254 22.8504 25.5511 22.0644 25.5511 21.1705C25.5511 20.2689 25.7254 19.4811 26.0739 18.8068C26.4223 18.1288 26.9167 17.6023 27.5568 17.2273C28.2008 16.8485 28.964 16.6591 29.8466 16.6591C30.7292 16.6591 31.4905 16.8485 32.1307 17.2273C32.7746 17.6023 33.2708 18.1288 33.6193 18.8068C33.9678 19.4811 34.142 20.2689 34.142 21.1705C34.142 22.0644 33.9678 22.8504 33.6193 23.5284C33.2708 24.2027 32.7746 24.7292 32.1307 25.108C31.4905 25.483 30.7292 25.6705 29.8466 25.6705ZM29.858 23.7955C30.2595 23.7955 30.5947 23.6818 30.8636 23.4545C31.1326 23.2235 31.3352 22.9091 31.4716 22.5114C31.6117 22.1136 31.6818 21.661 31.6818 21.1534C31.6818 20.6458 31.6117 20.1932 31.4716 19.7955C31.3352 19.3977 31.1326 19.0833 30.8636 18.8523C30.5947 18.6212 30.2595 18.5057 29.858 18.5057C29.4527 18.5057 29.1117 18.6212 28.8352 18.8523C28.5625 19.0833 28.3561 19.3977 28.2159 19.7955C28.0795 20.1932 28.0114 20.6458 28.0114 21.1534C28.0114 21.661 28.0795 22.1136 28.2159 22.5114C28.3561 22.9091 28.5625 23.2235 28.8352 23.4545C29.1117 23.6818 29.4527 23.7955 29.858 23.7955ZM39.6477 28.9545C38.8636 28.9545 38.1913 28.8466 37.6307 28.6307C37.0739 28.4186 36.6307 28.1288 36.3011 27.7614C35.9716 27.3939 35.7576 26.9811 35.6591 26.5227L37.8977 26.2216C37.9659 26.3958 38.0739 26.5587 38.2216 26.7102C38.3693 26.8617 38.5644 26.983 38.8068 27.0739C39.053 27.1686 39.3523 27.2159 39.7045 27.2159C40.2311 27.2159 40.6648 27.0871 41.0057 26.8295C41.3504 26.5758 41.5227 26.1496 41.5227 25.5511V23.9545H41.4205C41.3144 24.197 41.1553 24.4261 40.9432 24.642C40.7311 24.858 40.4583 25.0341 40.125 25.1705C39.7917 25.3068 39.3939 25.375 38.9318 25.375C38.2765 25.375 37.6799 25.2235 37.142 24.9205C36.608 24.6136 36.1818 24.1458 35.8636 23.517C35.5492 22.8845 35.392 22.0852 35.392 21.1193C35.392 20.1307 35.553 19.3049 35.875 18.642C36.197 17.9792 36.625 17.483 37.1591 17.1534C37.697 16.8239 38.286 16.6591 38.9261 16.6591C39.4148 16.6591 39.8239 16.7424 40.1534 16.9091C40.483 17.072 40.7481 17.2765 40.9489 17.5227C41.1534 17.7652 41.3106 18.0038 41.4205 18.2386H41.5114V16.7727H43.9148V25.5852C43.9148 26.3277 43.733 26.9489 43.3693 27.4489C43.0057 27.9489 42.5019 28.3239 41.858 28.5739C41.2178 28.8277 40.4811 28.9545 39.6477 28.9545ZM39.6989 23.5568C40.089 23.5568 40.4186 23.4602 40.6875 23.267C40.9602 23.0701 41.1686 22.7898 41.3125 22.4261C41.4602 22.0587 41.5341 21.6193 41.5341 21.108C41.5341 20.5966 41.4621 20.1534 41.3182 19.7784C41.1742 19.3996 40.9659 19.1061 40.6932 18.8977C40.4205 18.6894 40.089 18.5852 39.6989 18.5852C39.3011 18.5852 38.9659 18.6932 38.6932 18.9091C38.4205 19.1212 38.214 19.4167 38.0739 19.7955C37.9337 20.1742 37.8636 20.6117 37.8636 21.108C37.8636 21.6117 37.9337 22.0473 38.0739 22.4148C38.2178 22.7784 38.4242 23.0606 38.6932 23.2614C38.9659 23.4583 39.3011 23.5568 39.6989 23.5568ZM49.7727 28.9545C48.9886 28.9545 48.3163 28.8466 47.7557 28.6307C47.1989 28.4186 46.7557 28.1288 46.4261 27.7614C46.0966 27.3939 45.8826 26.9811 45.7841 26.5227L48.0227 26.2216C48.0909 26.3958 48.1989 26.5587 48.3466 26.7102C48.4943 26.8617 48.6894 26.983 48.9318 27.0739C49.178 27.1686 49.4773 27.2159 49.8295 27.2159C50.3561 27.2159 50.7898 27.0871 51.1307 26.8295C51.4754 26.5758 51.6477 26.1496 51.6477 25.5511V23.9545H51.5455C51.4394 24.197 51.2803 24.4261 51.0682 24.642C50.8561 24.858 50.5833 25.0341 50.25 25.1705C49.9167 25.3068 49.5189 25.375 49.0568 25.375C48.4015 25.375 47.8049 25.2235 47.267 24.9205C46.733 24.6136 46.3068 24.1458 45.9886 23.517C45.6742 22.8845 45.517 22.0852 45.517 21.1193C45.517 20.1307 45.678 19.3049 46 18.642C46.322 17.9792 46.75 17.483 47.2841 17.1534C47.822 16.8239 48.411 16.6591 49.0511 16.6591C49.5398 16.6591 49.9489 16.7424 50.2784 16.9091C50.608 17.072 50.8731 17.2765 51.0739 17.5227C51.2784 17.7652 51.4356 18.0038 51.5455 18.2386H51.6364V16.7727H54.0398V25.5852C54.0398 26.3277 53.858 26.9489 53.4943 27.4489C53.1307 27.9489 52.6269 28.3239 51.983 28.5739C51.3428 28.8277 50.6061 28.9545 49.7727 28.9545ZM49.8239 23.5568C50.214 23.5568 50.5436 23.4602 50.8125 23.267C51.0852 23.0701 51.2936 22.7898 51.4375 22.4261C51.5852 22.0587 51.6591 21.6193 51.6591 21.108C51.6591 20.5966 51.5871 20.1534 51.4432 19.7784C51.2992 19.3996 51.0909 19.1061 50.8182 18.8977C50.5455 18.6894 50.214 18.5852 49.8239 18.5852C49.4261 18.5852 49.0909 18.6932 48.8182 18.9091C48.5455 19.1212 48.339 19.4167 48.1989 19.7955C48.0587 20.1742 47.9886 20.6117 47.9886 21.108C47.9886 21.6117 48.0587 22.0473 48.1989 22.4148C48.3428 22.7784 48.5492 23.0606 48.8182 23.2614C49.0909 23.4583 49.4261 23.5568 49.8239 23.5568ZM59.9432 25.6705C59.0455 25.6705 58.2727 25.4886 57.625 25.125C56.9811 24.7576 56.4848 24.2386 56.1364 23.5682C55.7879 22.8939 55.6136 22.0966 55.6136 21.1761C55.6136 20.2784 55.7879 19.4905 56.1364 18.8125C56.4848 18.1345 56.9754 17.6061 57.608 17.2273C58.2443 16.8485 58.9905 16.6591 59.8466 16.6591C60.4223 16.6591 60.9583 16.7519 61.4545 16.9375C61.9545 17.1193 62.3902 17.3939 62.7614 17.7614C63.1364 18.1288 63.428 18.5909 63.6364 19.1477C63.8447 19.7008 63.9489 20.3485 63.9489 21.0909V21.7557H56.5795V20.2557H61.6705C61.6705 19.9072 61.5947 19.5985 61.4432 19.3295C61.2917 19.0606 61.0814 18.8504 60.8125 18.6989C60.5473 18.5436 60.2386 18.4659 59.8864 18.4659C59.5189 18.4659 59.1932 18.5511 58.9091 18.7216C58.6288 18.8883 58.4091 19.1136 58.25 19.3977C58.0909 19.678 58.0095 19.9905 58.0057 20.3352V21.7614C58.0057 22.1932 58.0852 22.5663 58.2443 22.8807C58.4072 23.1951 58.6364 23.4375 58.9318 23.608C59.2273 23.7784 59.5777 23.8636 59.983 23.8636C60.2519 23.8636 60.4981 23.8258 60.7216 23.75C60.9451 23.6742 61.1364 23.5606 61.2955 23.4091C61.4545 23.2576 61.5758 23.072 61.6591 22.8523L63.8977 23C63.7841 23.5379 63.5511 24.0076 63.1989 24.4091C62.8504 24.8068 62.3996 25.1174 61.8466 25.3409C61.2973 25.5606 60.6629 25.6705 59.9432 25.6705ZM65.5284 25.5V16.7727H67.875V18.2955H67.9659C68.125 17.7538 68.392 17.3447 68.767 17.0682C69.142 16.7879 69.5739 16.6477 70.0625 16.6477C70.1837 16.6477 70.3144 16.6553 70.4545 16.6705C70.5947 16.6856 70.7178 16.7064 70.8239 16.733V18.8807C70.7102 18.8466 70.553 18.8163 70.3523 18.7898C70.1515 18.7633 69.9678 18.75 69.8011 18.75C69.4451 18.75 69.1269 18.8277 68.8466 18.983C68.5701 19.1345 68.3504 19.3466 68.1875 19.6193C68.0284 19.892 67.9489 20.2064 67.9489 20.5625V25.5H65.5284Z" fill="white"/>
<rect x="1" y="1" width="80" height="38" rx="5" stroke="white" stroke-width="2"/>
</svg>
